HIERARCHY
ROOT Hips
{
	OFFSET -1.337989 105.533104 -1.111724
	CHANNELS 6 Xposition Yposition Zposition Xrotation Yrotation Zrotation
	JOINT Chest
	{
		OFFSET 0.290201 13.534462 1.699510
		CHANNELS 3 Xrotation Yrotation Zrotation
		JOINT Chest2
		{
			OFFSET -0.696047 21.329926 1.901707
			CHANNELS 3 Xrotation Yrotation Zrotation
			JOINT Chest3
			{
				OFFSET -0.445886 14.919327 -0.186968
				CHANNELS 3 Xrotation Yrotation Zrotation
				JOINT Neck
				{
					OFFSET 0.374411 17.211060 1.501808
					CHANNELS 3 Xrotation Yrotation Zrotation
					JOINT Head
					{
						OFFSET -0.320650 10.411499 1.151289
						CHANNELS 3 Xrotation Yrotation Zrotation
						End Site
						{
							OFFSET -0.317003 10.419388 1.078720
						}
					}
				}
				JOINT LeftCollar
				{
					OFFSET 4.640800 12.879852 3.791657
					CHANNELS 3 Xrotation Yrotation Zrotation
					JOINT LeftUpArm
					{
						OFFSET 14.109501 -5.499893 -8.897896
						CHANNELS 3 Xrotation Yrotation Zrotation
						JOINT LeftLowArm
						{
							OFFSET 4.306854 -33.482224 0.346403
							CHANNELS 3 Xrotation Yrotation Zrotation
							JOINT LeftHand
							{
								OFFSET -0.982916 -28.306450 9.936098
								CHANNELS 3 Xrotation Yrotation Zrotation
								End Site
								{
									OFFSET -0.214813 -6.186546 2.171587
								}
							}
						}
					}
				}
				JOINT RightCollar
				{
					OFFSET -3.762097 13.022827 4.249874
					CHANNELS 3 Xrotation Yrotation Zrotation
					JOINT RightUpArm
					{
						OFFSET -14.646536 -5.765030 -7.793570
						CHANNELS 3 Xrotation Yrotation Zrotation
						JOINT RightLowArm
						{
							OFFSET -5.367897 -33.329712 0.224358
							CHANNELS 3 Xrotation Yrotation Zrotation
							JOINT RightHand
							{
								OFFSET 1.929735 -27.788666 11.181295
								CHANNELS 3 Xrotation Yrotation Zrotation
								End Site
								{
									OFFSET 0.421755 -6.073486 2.443789
								}
							}
						}
					}
				}
			}
		}
	}
	JOINT LeftUpLeg
	{
		OFFSET 10.014374 -0.248131 0.264395
		CHANNELS 3 Xrotation Yrotation Zrotation
		JOINT LeftLowLeg
		{
			OFFSET 3.757331 -47.059788 -3.904888
			CHANNELS 3 Xrotation Yrotation Zrotation
			JOINT LeftFoot
			{
				OFFSET 1.489391 -43.029572 -12.116334
				CHANNELS 3 Xrotation Yrotation Zrotation
				JOINT LeftToe
				{
					OFFSET 0.998751 -15.308893 18.005545
					CHANNELS 3 Xrotation Yrotation Zrotation
					End Site
					{
						OFFSET 1.115460 -0.387387 23.625507
					}
				}
			}
		}
	}
	JOINT RightUpLeg
	{
		OFFSET -10.014381 0.247940 -0.264419
		CHANNELS 3 Xrotation Yrotation Zrotation
		JOINT RightLowLeg
		{
			OFFSET -2.505338 -47.157982 -3.722997
			CHANNELS 3 Xrotation Yrotation Zrotation
			JOINT RightFoot
			{
				OFFSET 0.213559 -42.795265 -13.003843
				CHANNELS 3 Xrotation Yrotation Zrotation
				JOINT RightToe
				{
					OFFSET -1.248679 -17.843727 15.478987
					CHANNELS 3 Xrotation Yrotation Zrotation
					End Site
					{
						OFFSET -4.073767 -4.042347 22.948200
					}
				}
			}
		}
	}
}
MOTION
Frames: 10
Frame Time: 0.033333
-1.337990 105.533112 -1.111723 0.000000 -0.000000 0.000000 0.000000 -0.000000 0.000000 -0.000002 0.000000 0.000000 0.000001 -0.000000 -0.000000 -0.000000 0.000000 -0.000000 -0.000000 0.000000 -0.000000 -0.000000 -0.000001 0.000005 0.000000 0.000000 0.000000 0.000000 -0.000004 -0.000001 -0.000000 -0.000004 0.000000 -0.000000 0.000000 0.000001 -0.000000 0.000002 -0.000000 0.000001 -0.000002 0.000001 0.000001 0.000001 0.000001 -0.000000 -0.000000 0.000000 0.000001 -0.000000 0.000000 0.000000 0.000000 -0.000000 -0.000000 -0.000000 0.000000 0.000000 0.000000 -0.000000 0.000000 0.000000 0.000001 -0.000001 -0.000001 -0.000000 -0.000002 0.000001 -0.000001 
-1.340671 105.527985 -1.106744 -0.141830 0.069913 -0.031617 0.358692 -0.008449 0.048627 -0.234301 0.000035 -0.047148 0.155618 0.040904 0.063187 0.064482 -0.019427 -0.007039 -0.000000 0.000001 0.000000 -0.078637 -0.101779 0.211963 0.190637 0.306918 -0.132544 0.158321 0.082522 -0.268614 -0.000004 -0.000002 0.000000 -0.036731 0.356756 -0.044813 0.160730 -0.260773 -0.058375 -0.032633 0.001392 0.037022 0.000001 -0.000003 0.000001 0.291489 0.027604 0.030179 0.044244 -0.013227 0.074237 0.002133 -0.285483 0.063686 0.000000 -0.000000 0.000000 0.184234 -0.027620 0.028981 -0.008828 0.035673 0.012028 0.057833 -0.051414 -0.035642 -0.000001 -0.000000 -0.000001 
-1.340172 105.521866 -1.102228 -0.053792 -0.146570 -0.011246 0.348012 -0.008847 0.023190 -0.692902 0.024301 -0.090724 0.672202 0.360953 0.151253 0.194029 -0.059556 -0.000260 -0.000000 0.000000 -0.000000 0.041955 -0.400812 0.284462 0.247334 0.244644 -0.240082 -0.169459 -0.051878 -0.120857 -0.000001 0.000003 -0.000001 -0.013194 0.120362 -0.076604 -0.099231 0.094289 -0.025449 0.138004 0.135732 -0.182913 0.000001 0.000001 0.000001 0.275724 0.045124 -0.019886 0.210517 -0.069749 0.059778 -0.195428 -0.088409 0.230217 -0.000000 0.000000 0.000000 0.027702 -0.010508 0.010392 0.084345 0.077939 -0.043399 0.149030 -0.128807 -0.139950 -0.000001 -0.000000 -0.000000 
-1.341557 105.516235 -1.099002 -0.148186 0.011528 -0.086251 0.469283 -0.029744 0.135344 0.003908 -0.002804 -0.059579 -0.000473 0.395629 0.083129 0.250653 -0.147002 0.078250 -0.000000 0.000001 0.000000 0.063927 -0.608602 0.264283 0.125856 0.169161 -0.166766 -0.142395 -0.016225 -0.266768 -0.000001 -0.000007 0.000001 -0.002102 0.229513 -0.093407 0.138375 -0.076363 -0.069907 -0.363002 0.104202 -0.127462 0.000003 0.000000 -0.000000 0.156916 0.014944 0.031491 0.350407 -0.112792 0.098891 -0.205199 0.021880 0.226183 -0.000000 -0.000000 0.000000 0.138362 -0.000024 0.090572 0.013887 0.079348 -0.035198 0.002084 0.056522 0.009737 -0.000000 0.000001 -0.000001 
-1.344894 105.511848 -1.096226 -0.035572 -0.112175 -0.053101 0.912717 -0.038872 0.055047 -1.128057 0.067010 -0.111485 0.607540 0.235014 0.179154 0.315606 -0.046302 -0.093792 -0.000000 0.000000 0.000000 0.096323 -0.131146 0.549407 0.209576 0.178040 -0.402748 -0.246934 -0.237127 -0.443031 -0.000002 -0.000004 -0.000000 0.024656 0.091929 -0.231622 0.223394 -0.085615 0.060098 -0.047797 0.086566 -0.020180 0.000003 0.000000 0.000000 0.200471 0.035558 0.030244 0.192209 -0.071317 0.116471 0.086308 -0.146859 -0.007136 -0.000000 -0.000000 0.000000 0.219496 -0.009736 0.003305 -0.087491 -0.077581 0.027387 0.024985 -0.067985 -0.181692 -0.000000 0.000001 -0.000001 
-1.346417 105.513184 -1.096803 0.141387 -0.271364 -0.070603 0.311460 -0.010522 0.035906 0.134659 0.048070 -0.094566 -0.162201 0.103375 0.165884 0.505293 0.044496 -0.143610 -0.000000 0.000000 -0.000000 0.175798 -0.348972 0.399522 0.110164 0.043507 -0.325511 -0.452986 -0.190771 -0.110307 -0.000000 -0.000002 -0.000001 0.136364 0.545015 -0.298601 0.290974 -0.052076 0.088119 -0.087456 0.135790 0.020248 0.000001 -0.000001 0.000000 -0.064746 0.000071 0.042658 0.603766 -0.124502 0.074353 0.082886 -0.138176 0.001637 -0.000000 -0.000000 -0.000000 -0.002025 0.012573 0.006490 0.148009 -0.029777 0.056478 0.192719 0.017964 -0.295240 -0.000001 -0.000001 -0.000000 
-1.348203 105.505806 -1.091139 0.059261 -0.240025 -0.043098 0.556324 -0.007524 0.007032 -0.131550 0.028097 -0.059552 -0.063420 -0.211092 0.068261 0.590207 0.163366 -0.208626 -0.000000 0.000000 0.000000 0.067562 -0.068612 0.454275 0.153752 0.195370 -0.437334 -0.331299 -0.029015 -0.103195 -0.000001 -0.000002 0.000001 0.120264 1.061336 -0.475739 0.375221 -0.215654 0.322237 -0.139054 0.026425 -0.004261 -0.000001 0.000000 0.000000 0.137495 -0.018328 0.022168 0.515630 -0.163247 0.063941 0.187306 -0.162679 -0.150996 0.000000 -0.000000 0.000000 0.145909 0.026609 -0.015965 0.154279 0.044596 0.085688 0.158641 -0.265048 -0.233691 -0.000000 -0.000000 -0.000002 
-1.355941 105.498268 -1.082196 0.312043 -0.420802 -0.113830 0.248663 -0.002150 -0.012036 -0.176241 0.002424 -0.018547 0.144942 -0.130064 0.055428 0.349793 0.152241 -0.297443 -0.000000 0.000000 0.000000 0.096900 0.026385 0.573418 0.073973 0.121108 -0.499513 -0.056517 -0.090660 -0.178294 -0.000003 -0.000006 -0.000000 0.111720 0.981411 -0.586480 0.168684 -0.123084 0.494995 -0.043677 -0.069314 0.008591 0.000000 0.000002 0.000000 -0.059566 -0.011400 0.084932 0.270194 -0.055225 0.062499 0.040100 0.184251 -0.069037 -0.000000 -0.000000 0.000000 -0.009513 -0.009152 0.108488 -0.039787 -0.077063 -0.067560 0.320546 -0.463707 -0.477408 -0.000000 0.000001 0.000000 
-1.361381 105.492226 -1.071669 0.420151 -0.367659 -0.096132 -0.100875 0.005790 -0.048299 0.449227 -0.016348 0.008297 -0.162399 -0.026825 0.046122 0.467997 0.066605 -0.258856 -0.000001 0.000000 0.000000 0.115657 0.458455 0.709507 -0.062199 -0.018774 -0.546433 0.168495 -0.176379 -0.449334 -0.000002 -0.000002 -0.000001 0.041824 0.151070 -0.644985 0.139188 -0.039174 0.484545 -0.086803 -0.025550 0.224475 -0.000000 0.000000 0.000000 0.004944 0.001891 0.057591 -0.052768 -0.054695 0.102138 0.143335 0.041601 -0.118626 0.000000 0.000000 0.000000 0.229938 -0.036126 0.058321 -0.390751 -0.181643 -0.064065 0.488132 -0.217973 -0.670650 0.000001 -0.000000 -0.000001 
-1.365432 105.485390 -1.059148 0.480807 -0.253088 -0.139949 -0.262870 0.010554 -0.023858 0.540408 -0.074863 0.061700 -0.375838 -0.315756 -0.023070 0.689672 0.066328 -0.422200 -0.000001 0.000001 0.000000 0.023231 0.775037 0.585717 0.101870 0.288093 -0.517761 0.118016 -0.069381 -0.528225 -0.000001 -0.000000 0.000000 -0.011398 0.228339 -0.539232 0.211443 -0.276386 0.370037 0.118087 -0.106290 0.426256 -0.000000 0.000001 0.000000 0.078571 0.055744 0.107884 0.004333 0.074470 0.163208 0.116667 -0.228238 0.060270 -0.000000 -0.000000 0.000000 0.075595 -0.099755 0.138938 0.005508 -0.330269 -0.108660 0.537302 0.113807 -0.804161 -0.000000 0.000001 -0.000001 
